<?xml version="1.0" standalone="no"?>
<!DOCTYPE svg PUBLIC "-//W3C//DTD SVG 20010904//EN"
        "http://www.w3.org/TR/2001/REC-SVG-20010904/DTD/svg10.dtd">
<svg version="1.0" xmlns="http://www.w3.org/2000/svg"
     width="20.000000pt" height="20.000000pt" viewBox="0 0 20.000000 20.000000"
     preserveAspectRatio="xMidYMid meet">
    <metadata>
        Created by potrace 1.16, written by Peter Selinger 2001-2019
    </metadata>
    <g transform="translate(0.000000,20.000000) scale(0.100000,-0.100000)"
       fill="#000000" stroke="none">
        <path d="M0 163 c1 -37 1 -37 14 -14 7 13 24 30 37 37 23 13 23 13 -13 14 -37
0 -38 -1 -38 -37z"/>
        <path d="M149 186 c13 -7 30 -24 37 -37 13 -23 13 -23 14 14 0 36 -1 37 -37
37 -37 -1 -37 -1 -14 -14z"/>
        <path d="M42 157 c-50 -53 -13 -137 59 -137 47 0 79 34 79 81 0 71 -90 107
-138 56z m112 -25 c3 -5 -10 -24 -29 -42 l-35 -34 -25 24 c-27 25 -23 51 4 26
16 -15 20 -14 41 9 25 26 35 30 44 17z"/>
        <path d="M0 38 c0 -37 1 -38 38 -38 36 1 36 1 13 14 -13 7 -30 24 -37 37 -13
23 -13 23 -14 -13z"/>
        <path d="M185 50 c-4 -11 -18 -27 -33 -35 l-27 -14 38 -1 c36 0 37 1 37 35 0
39 -6 45 -15 15z"/>
    </g>
</svg>
